<?xml version="1.0" encoding="utf-8"?>
<!-- Generator: Adobe Illustrator 19.0.1, SVG Export Plug-In . SVG Version: 6.00 Build 0)  -->
<svg version="1.1" xmlns="http://www.w3.org/2000/svg" xmlns:xlink="http://www.w3.org/1999/xlink" x="0px" y="0px"
	 viewBox="0 0 100 100" style="enable-background:new 0 0 100 100;" xml:space="preserve">
<style type="text/css">
	.st0{fill:#FFFFFF;stroke:#000000;stroke-width:0.4405;}
	.st1{fill:#FEC238;}
	.st2{fill:#2D3D81;}
	.st3{fill:#30A24B;}
	.st4{fill:#A7A9AC;stroke:#000000;stroke-width:0.4486;}
	.st5{fill:none;stroke:#000000;stroke-width:0.4486;}
	.st6{fill:none;stroke:#000000;stroke-width:0.3548;}
	.st7{fill:none;stroke:#000000;stroke-width:0.4775;}
	.st8{fill:none;}
	.st9{fill:none;stroke:#000000;stroke-width:0.5194;}
	.st10{fill:#FFFFFF;stroke:#000000;stroke-width:0.4486;}
	.st11{fill:none;stroke:#000000;stroke-width:0.4673;}
	.st12{fill:#A7A9AC;stroke:#000000;stroke-width:0.735;}
</style>
<g>
	<path class="st0" d="M91.5,13.9c0,0-9.5-10.5-9.8-10.3C66.9,11,54.2,4.5,49.7,1c-4.5,3.5-16.6,10-31.4,2.7
		c-0.3-0.3-9.8,10.3-9.8,10.3c5,5.1,10.6,15.1,2.9,40.2C9.5,65.5,12,80.4,23.6,84.4c10.8,4.1,23.4,7.9,25.9,12.9L50,99c0,0,0,0,0,0
		c0,0,0,0,0,0l0,0c0,0,0,0,0,0l0.3-1.3c2-5,15.2-9,26.1-13.2C88,80.4,90.5,65.5,88.6,54.2C80.9,29.1,86.4,19.1,91.5,13.9z"/>
	<path class="st1" d="M89,14c0,0-8-8.4-8.2-8.2c-13.9,6.9-26.8,1.4-31-1.9c-4.2,3.3-17.3,8.7-31.2,1.9c-0.2-0.3-7.7,8.4-7.7,8.4
		c4.7,4.8,10.2,16.1,3,39.7C12,64.6,14.3,78.5,25.2,82.3c10.1,3.9,22,7.5,24.4,12.1L50,96c0,0,0,0,0,0c0,0,0,0,0,0l0,0c0,0,0,0,0,0
		l0.2-1.3c1.9-4.7,14.3-8.4,24.5-12.4C85.7,78.5,88,64.6,86.2,53.9C79,30.3,84.3,18.9,89,14z"/>
	<path class="st2" d="M86.4,14.1c0,0-5.6-6.1-5.8-5.8c-12.9,6.4-26.9,2.1-30.9-0.9c-3.9,3.1-18.5,7.3-31.5,0.9c-0.2-0.2-5,5.8-5,5.8
		c4.4,4.5,9.8,17.7,3.1,39.6C14.7,63.5,16.8,76.5,27,80c9.4,3.6,20.4,6.9,22.6,11.3l0.4,1.4c0,0,0,0,0,0c0,0,0,0,0,0l0,0
		c0,0,0,0,0,0l0.2-1.2C52,87.2,63.5,83.7,73,80c10.1-3.5,12.3-16.5,10.6-26.4C76.9,31.8,82,18.5,86.4,14.1z"/>
	<path class="st3" d="M65.8,53.3c0,0-5.6-3.8-5.8-3.6c-7.3,0-10.3-0.9-19-2.3c-2.3,1.2-6.6-0.2-11,0.9c-0.2-0.2-9.6,1.1-9.6,1.1
		c4.4,4.5-2.7-6.2-4,4.3c-1.7,9.9,0.5,22.8,10.6,26.4c9.4,3.6,20.4,6.9,22.6,11.3l0.4,1.4c0,0,0,0,0,0c0,0,0,0,0,0l0,0c0,0,0,0,0,0
		l0.2-1.2C51.9,87.2,63.4,83.7,73,80c10.1-3.5,12.3-16.5,10.6-26.4C75.8,55.4,70.8,53.7,65.8,53.3z"/>
	<path class="st4" d="M83.3,52.8C83.3,52.8,84.6,57.6,83.3,52.8c-1.3-4.8-2.3-9.3-2.5-12.1c0,0.2-3,0-3,0l-2.1-7.1v-8l-0.9-0.2v-2.5
		L73.5,22l-1.1,0.2l-0.7-1.1l-2.3-0.5L68,22.7l-1.1,0.2l-1.1-1.1v6.2l-2.5,2.5L62,29.5v-4.8l1.1-0.9v-1.1L61.3,22l-2.5,0.7l-2.1-0.5
		v-1.1l-1.8-0.7l-1.1,1.4l-3.2,0.5l-2.3,0.5l-1.6-1.8L46,22.7l-2.3,0.2v2.1L41,29.8l-3-0.2v-8.5l-2.1-4.8l-2.1,4.1v13l-1.8-0.2
		l-1.4,0.5l-0.5,1.1l-1.1-1.6h-1.1l-0.5,1.6l-2.1-1.1L23.6,35l-1.4-0.9l-1.4-0.7v2.5l-0.4,6.6L18.3,46l6.2,0.3l9.6,0.2L46.2,46
		l10.5,1.8l8.5,3.2l10.1,1.8L83.3,52.8"/>
	<path d="M41.7,39.5h0.9v-4.9c-0.1-0.7-0.9-0.8-1-0.2C41.7,34.4,41.7,39.5,41.7,39.5z"/>
	<path d="M44.2,39.5h1.2v-4.9c-0.2-0.7-1.2-0.8-1.4-0.2C44.2,34.4,44.2,39.5,44.2,39.5z"/>
	<path d="M46.7,39.5h0.9v-4.9c-0.1-0.7-0.9-0.8-1-0.2C46.7,34.4,46.7,39.5,46.7,39.5z"/>
	<ellipse cx="44.3" cy="28.9" rx="1.4" ry="1.1"/>
	<path d="M42.8,43.4v-2.2c1.3-0.6,2.5-0.8,3.5,0.2c-0.1-0.1,0,2.1,0,2.1L42.8,43.4z"/>
	<rect x="70.4" y="26.4" width="0.9" height="1.6"/>
	<rect x="49.3" y="24.1" width="0.9" height="1.6"/>
	<rect x="49.1" y="28.1" width="0.9" height="1.6"/>
	<rect x="68.1" y="31.5" width="0.9" height="1.5"/>
	<rect x="63.5" y="36.5" width="1" height="1.9"/>
	<rect x="59.1" y="34" width="1.2" height="1.3"/>
	<rect x="59.3" y="42.3" width="1" height="1.7"/>
	<rect x="68.9" y="42.6" width="0.7" height="1.5"/>
	<rect x="74.9" y="39.7" width="0.8" height="1.6"/>
	<rect x="75.6" y="46.5" width="0.8" height="2.2"/>
	<rect x="72.6" y="45.5" width="0.9" height="2"/>
	<rect x="74.7" y="31.5" width="0.6" height="1.4"/>
	<rect x="63.5" y="43.5" width="1.3" height="2.7"/>
	<rect x="35.9" y="22.9" width="0.6" height="1.6"/>
	<rect x="35" y="33.3" width="0.5" height="1.3"/>
	<rect x="32" y="37.6" width="0.9" height="5"/>
	<rect x="27.1" y="37.5" width="1.2" height="1.3"/>
	<rect x="29.5" y="41" width="0.7" height="1.6"/>
	<rect x="27" y="41.5" width="0.9" height="1.9"/>
	<rect x="24.4" y="38.3" width="0.9" height="4.1"/>
	<rect x="54" y="33.8" width="0.7" height="6.5"/>
	<rect x="56.7" y="24.7" width="0.7" height="1"/>
	<rect x="49.2" y="34.4" width="1" height="1.7"/>
	<rect x="49.2" y="37.9" width="1" height="1.7"/>
	<rect x="38.5" y="34.4" width="1" height="1.7"/>
	<rect x="38.5" y="37.9" width="1" height="1.7"/>
	<polygon points="50.3,36.1 52.7,37.5 52.8,35.4 50.3,34.4 	"/>
	<polygon points="50.3,39.5 52.7,40.9 52.8,38.8 50.3,37.7 	"/>
	<line class="st5" x1="78.2" y1="51" x2="78.2" y2="40.8"/>
	<line class="st5" x1="81" y1="42.3" x2="78.2" y2="42.3"/>
	<line class="st5" x1="74.3" y1="50.9" x2="73.1" y2="22"/>
	<line class="st5" x1="65.7" y1="25.2" x2="73.2" y2="23.7"/>
	<polyline class="st5" points="75.8,33.6 73.6,33.2 72.3,34 72.3,50.6 	"/>
	<path class="st5" d="M66.4,50l-0.2-7.4c-0.6-1.3-2.4-2.2-3.7-0.3c-0.1,0.1,0,6.3,0,6.3"/>
	<polyline class="st5" points="62,29.5 59.2,31.5 57.4,30 55.8,31 54.8,30.3 53.6,31 53,30.9 50.3,26.3 48.2,28.5 	"/>
	<polyline class="st5" points="39.9,43.2 39.9,31.3 43.7,24.9 48.9,30.5 48.6,43.1 	"/>
	<line class="st5" x1="57.1" y1="45.4" x2="57" y2="30.3"/>
	<line class="st5" x1="55.6" y1="45.3" x2="55.8" y2="31"/>
	<line class="st5" x1="58.5" y1="30.9" x2="58.5" y2="23.3"/>
	<line class="st5" x1="54.8" y1="30.3" x2="54.8" y2="20.8"/>
	<line class="st5" x1="62" y1="24.7" x2="59.2" y2="24.7"/>
	<line class="st5" x1="50.8" y1="43.2" x2="50.8" y2="30.9"/>
	<polyline class="st5" points="52.3,42.8 52.3,33.2 50,28.7 48.5,30.1 	"/>
	<line class="st5" x1="38" y1="21.1" x2="37.5" y2="43.3"/>
	<line class="st5" x1="34" y1="43.3" x2="33.9" y2="33.4"/>
	<line class="st5" x1="33.9" y1="20.4" x2="37.7" y2="20.5"/>
	<line class="st5" x1="34.5" y1="19.2" x2="37.2" y2="19.1"/>
	<line class="st6" x1="35" y1="18.1" x2="36.7" y2="18.1"/>
	<line class="st7" x1="34.4" y1="20" x2="37.5" y2="19.9"/>
	<line class="st8" x1="35.1" y1="18" x2="36.8" y2="18.2"/>
	<line class="st8" x1="34.3" y1="19.5" x2="37.3" y2="19.5"/>
	<line class="st8" x1="33.9" y1="35.3" x2="21.4" y2="36.1"/>
	<polyline class="st5" points="20.5,45.4 20.5,40.8 20.6,36.5 23.4,36.7 23.6,44.8 22.2,45.1 21.9,42.1 22.3,39.7 22.2,38.3 	"/>
	<line class="st9" x1="21.8" y1="42.5" x2="20.7" y2="42.5"/>
	<line class="st5" x1="22.2" y1="40.5" x2="20.5" y2="40.8"/>
	<path class="st4" d="M18.3,46c4.8-1.6,14.6-2.2,17.6-0.9c0.7-1.4,10.5-0.9,13.3-0.5c2.7,1.4,8.2,1.6,9.2,1.4
		c1.6-0.2,2.7,1.1,3.9,2.5c2.1,1.4,7.8,2.3,10.1,2.1c2.1,0.5,5.7,0.9,6.2,0.2c0.9,0,4.8,2,4.8,2l0.5,3c-4.4-1.6-5.8-1.1-5.8-1.1
		c-2.5,0.7-4.8-1.1-6-1.1c-2.5,0.5-9.4,0.2-11-1.4c-1.8-1.1-3.7-1.6-4.8-1.4c-2.1,0.5-4.3-1.6-7.1-1.8c-3,0-9.4-1.1-12.6,0
		c-3.7,0.2-9.2-2-19.3,1.2L18.3,46z"/>
	<g>
		<g>
			<path d="M44.2,52.7c0.4-0.1,0.7-0.3,1-0.6H46v4h-0.9V53c-0.3,0.2-0.6,0.4-0.9,0.5V52.7z"/>
			<path d="M47.8,54c-0.5-0.1-0.8-0.4-0.8-0.9c0-0.7,0.7-1,1.4-1c0.6,0,1.4,0.3,1.4,1c0,0.5-0.4,0.8-0.8,0.9v0v0
				c0.5,0.1,0.8,0.5,0.8,1c0,0.7-0.7,1.2-1.4,1.2c-0.7,0-1.4-0.4-1.4-1.2C47,54.5,47.4,54.1,47.8,54L47.8,54z M48.5,53.7
				c0.3,0,0.5-0.2,0.5-0.5c0-0.3-0.2-0.5-0.6-0.5c-0.3,0-0.5,0.2-0.5,0.5C47.8,53.5,48.1,53.7,48.5,53.7z M48.4,55.6
				c0.3,0,0.6-0.3,0.6-0.6c0-0.4-0.2-0.6-0.6-0.6c-0.3,0-0.6,0.2-0.6,0.6C47.8,55.3,48.1,55.6,48.4,55.6z"/>
			<path d="M51,54c-0.5-0.1-0.8-0.4-0.8-0.9c0-0.7,0.7-1,1.4-1c0.6,0,1.4,0.3,1.4,1c0,0.5-0.4,0.8-0.8,0.9v0v0
				c0.5,0.1,0.8,0.5,0.8,1c0,0.7-0.7,1.2-1.4,1.2c-0.7,0-1.4-0.4-1.4-1.2C50.2,54.5,50.6,54.1,51,54L51,54z M51.7,53.7
				c0.3,0,0.5-0.2,0.5-0.5c0-0.3-0.2-0.5-0.6-0.5c-0.3,0-0.5,0.2-0.5,0.5C51,53.5,51.3,53.7,51.7,53.7z M51.6,55.6
				c0.3,0,0.6-0.3,0.6-0.6c0-0.4-0.2-0.6-0.6-0.6c-0.3,0-0.6,0.2-0.6,0.6C51,55.3,51.2,55.6,51.6,55.6z"/>
			<path d="M55.7,55.3v0.8h-0.8v-0.8h-1.5v-0.6l1.4-2.5h0.9v2.5h0.5v0.6H55.7z M54.9,53.3L54.9,53.3l-0.7,1.3h0.7V53.3z"/>
		</g>
		<g>
			<circle class="st10" cx="50" cy="81" r="5.6"/>
			<path class="st11" d="M45.4,84.3c-0.5-2.8,1.6-5.7,2.8-6.1c1.1-0.1,4.4,2.3,3.6,4.2c-0.4,0.4-1.3,1.2-1,4.3"/>
			<path class="st11" d="M47.1,85.8c0.2-1.8,2.5-6,3.3-6.6"/>
			<path class="st11" d="M54.9,83.8c-1.3,0-3-0.9-3.1-1.5"/>
			<path class="st11" d="M48.1,78.2c-0.7-0.9-0.3-1.9,0-2.4"/>
			<path class="st11" d="M49.6,75.4c1.4,0.6,5.6,4,5.4,8"/>
		</g>
		<g>
			<path class="st12" d="M35.5,56.7l1.9-2.6l2-0.3l19.5,19.9c2.3,1.2,5.2-1.1,6.9-0.2c1.3,0.5,2.3,1.9,2.2,2.8
				c-0.5,2.4-3.9,4.4-7.1,3.7C59.4,79.5,58,78,58,78S41.9,58.2,38.9,57.2c-1.1,0-2.6,0-2.6,0L35.5,56.7z"/>
			<polygon points="39.4,57.5 41.2,55.7 45.6,60 43.9,61.7 			"/>
			<polygon points="65.5,79.4 66.5,78.7 64.7,73.4 63.5,73.5 			"/>
		</g>
		<g>
			<path class="st12" d="M64.8,56.7l-1.9-2.6l-2-0.3L41.4,73.7c-2.3,1.2-5.2-1.1-6.9-0.2c-1.3,0.5-2.3,1.9-2.2,2.8
				c0.5,2.4,3.9,4.4,7.1,3.7c1.4-0.6,2.8-2.1,2.8-2.1s16.1-19.8,19.2-20.8c1.1,0,2.6,0,2.6,0L64.8,56.7z"/>
			<polygon points="60.8,57.5 59,55.7 54.7,60 56.3,61.7 			"/>
			<polygon points="34.8,79.4 33.8,78.7 35.5,73.4 36.8,73.5 			"/>
		</g>
	</g>
</g>
</svg>
